<?xml version="1.0" encoding="UTF-8" standalone="no"?>
<svg height="100%" stroke-miterlimit="10" style="fill-rule:nonzero;clip-rule:evenodd;stroke-linecap:round;stroke-linejoin:round;" version="1.1" viewBox="0 0 1024 1024" width="100%" xml:space="preserve" xmlns="http://www.w3.org/2000/svg" xmlns:xlink="http://www.w3.org/1999/xlink">
<defs>
<linearGradient gradientUnits="userSpaceOnUse" id="GGradient" x1="200" x2="800" y1="500" y2="500">
<stop offset="0" stop-color="#FF9500"/>
<stop offset="1" stop-color="#FE6A00"/>
</linearGradient>
</defs>
<g id="Layer-1">
<path d="M117.718 228.798C117.718 119.455 206.358 30.8151 315.701 30.8151L708.299 30.8151C817.642 30.8151 906.282 119.455 906.282 228.798L906.282 795.202C906.282 904.545 817.642 993.185 708.299 993.185L315.701 993.185C206.358 993.185 117.718 904.545 117.718 795.202L117.718 228.798Z" fill="#0f172a" fill-rule="nonzero" opacity="1" stroke="#374151" stroke-linecap="butt" stroke-linejoin="round" stroke-width="20"/>

<g transform="matrix(6, 0, 0, 6, 370, 125)">
  <path d="M40.7242 78.0159C42.7083 89.1766 29.4147 95.5059 9.40476 94.881 10.9623 109.464 21.8254 127.47 22.0536 127.47 22.2817 127.47 19.375 129.454 18.254 130.298-5.29762 97.2222-6.45833 29.2857 18.998 0.248016L22.6091 3.50198C19.2361 7.71825 12.5099 18.006 10.7044 28.125 14.0377 26.6171 20.8829 27.5298 23.9484 29.6131 26.3698 27.4765 28.9573 25.5358 31.6865 23.8095 33.6012 23.2341 37.4802 26.25 37.0437 31.3988 36.8155 31.7063 36.2897 31.994 35.2579 32.8869 34.4444 30.9028 32.0933 26.8254 29.7917 29.0575 28.8889 29.9306 26.9643 31.6667 26.9643 31.7361 34.7222 36.9246 35.7143 53.2738 24.6528 59.5238 20.2235 62.1407 14.7777 62.3641 10.1488 60.119 8.75992 59.5933 6.18056 58.5119 5.83333 61.0119 5.56802 64.1499 5.60789 67.3063 5.95238 70.4365 16.8651 69.4444 38.8988 67.4603 40.7242 78.0159ZM21.875 91.5575C29.7619 90.0496 35.6349 84.9206 35.0595 80.0992 34.4841 75.2778 27.6389 72.5893 19.8413 74.0873 12.0437 75.5853 6.06151 80.7242 6.64682 85.5456 7.23214 90.3671 14.0575 93.0556 21.9048 91.5575ZM25.6349 44.3948C25.6349 36.9444 21.2996 30.9028 15.9524 30.9028 10.6052 30.9028 6.27976 36.9444 6.27976 44.3948 6.27976 51.8452 10.6151 57.8869 15.9524 57.8869 21.2897 57.8869 25.6647 51.8353 25.6647 44.3948Z" fill="url(#GGradient)" fill-rule="nonzero" fill-opacity="1"/>
</g>
</g>
</svg>
